<svg version="1.1" viewBox="0.0 0.0 360.0 192.0" fill="none" stroke="none" stroke-linecap="square" stroke-miterlimit="10" xmlns:xlink="http://www.w3.org/1999/xlink" xmlns="http://www.w3.org/2000/svg"><clipPath id="p.0"><path d="m0 0l360.0 0l0 192.0l-360.0 0l0 -192.0z" clip-rule="nonzero"/></clipPath><g clip-path="url(#p.0)"><path fill="#000000" fill-opacity="0.0" d="m0 0l360.0 0l0 192.0l-360.0 0z" fill-rule="evenodd"/><path fill="#212121" d="m359.99994 191.99028c-1.6081238 -2.7818146 -3.216278 -7.6651 -4.824402 -14.649857c-1.6081543 -6.954529 -2.4122314 -13.304321 -2.4122314 -19.049362l0 -114.25076c0 -8.919933 -2.4773865 -16.90252 -7.43219 -23.94776c-4.9113464 -7.075474 -10.909241 -12.185542 -17.993744 -15.3301935c-7.084503 -3.1748924 -15.516357 -4.7623386 -25.295563 -4.7623386c-9.735748 0 -19.536682 2.8876438 -29.402832 8.662921l2.0210571 2.2224245c8.257996 -2.9934702 16.190033 -4.4902053 23.796082 -4.4902053c7.6495056 0 14.929596 1.7688689 21.84024 5.306606c13.64743 6.682395 20.47113 17.461906 20.47113 32.338547l0 58.2366l-240.37299 0c-6.649864 -0.181427 -12.387001 -1.9956512 -17.21141 -5.4426727c-4.8244095 -3.447029 -7.236618 -7.5743866 -7.236618 -12.38208l0 -3.6284485l-3.9768753 0l0 61.00329l3.9768753 0l0 -3.6284485c0 -3.1446533 1.0865707 -6.107895 3.259735 -8.889694c4.78096 -5.775284 11.974121 -8.753639 21.57946 -8.935059l239.98181 0l0 52.97534c-0.30422974 4.2634277 -2.8033752 7.9674683 -7.497406 11.112122c-4.650543 3.1748962 -10.17038 4.7623444 -16.559448 4.7623444l-6.780243 0l-0.45635986 2.766693l50.52591 0z" fill-rule="evenodd"/><path stroke="#212121" stroke-width="1.0" stroke-linejoin="round" stroke-linecap="butt" d="m359.99994 191.99028c-1.6081238 -2.7818146 -3.216278 -7.6651 -4.824402 -14.649857c-1.6081543 -6.954529 -2.4122314 -13.304321 -2.4122314 -19.049362l0 -114.25076c0 -8.919933 -2.4773865 -16.90252 -7.43219 -23.94776c-4.9113464 -7.075474 -10.909241 -12.185542 -17.993744 -15.3301935c-7.084503 -3.1748924 -15.516357 -4.7623386 -25.295563 -4.7623386c-9.735748 0 -19.536682 2.8876438 -29.402832 8.662921l2.0210571 2.2224245c8.257996 -2.9934702 16.190033 -4.4902053 23.796082 -4.4902053c7.6495056 0 14.929596 1.7688689 21.84024 5.306606c13.64743 6.682395 20.47113 17.461906 20.47113 32.338547l0 58.2366l-240.37299 0c-6.649864 -0.181427 -12.387001 -1.9956512 -17.21141 -5.4426727c-4.8244095 -3.447029 -7.236618 -7.5743866 -7.236618 -12.38208l0 -3.6284485l-3.9768753 0l0 61.00329l3.9768753 0l0 -3.6284485c0 -3.1446533 1.0865707 -6.107895 3.259735 -8.889694c4.78096 -5.775284 11.974121 -8.753639 21.57946 -8.935059l239.98181 0l0 52.97534c-0.30422974 4.2634277 -2.8033752 7.9674683 -7.497406 11.112122c-4.650543 3.1748962 -10.17038 4.7623444 -16.559448 4.7623444l-6.780243 0l-0.45635986 2.766693l50.52591 0z" fill-rule="evenodd"/><path fill="#212121" d="m287.99994 191.99028c-1.6081238 -2.7818146 -3.216278 -7.6651 -4.824402 -14.649857c-1.6081543 -6.954529 -2.4122314 -13.304321 -2.4122314 -19.049362l0 -114.25076c0 -8.919933 -2.4773865 -16.90252 -7.43219 -23.947758c-4.9113464 -7.0754747 -10.909241 -12.185543 -17.993744 -15.330195c-7.084503 -3.1748922 -15.516342 -4.762338 -25.295563 -4.762338c-9.735733 0 -19.536667 2.887644 -29.402817 8.662921l2.0210419 2.2224245c8.257996 -2.9934697 16.190033 -4.490205 23.796066 -4.490205c7.649521 0 14.929596 1.7688684 21.84024 5.3066053c13.647446 6.682395 20.471146 17.46191 20.471146 32.338547l0 58.2366l-240.37299 0c-6.649864 -0.181427 -12.386999 -1.9956512 -17.21141 -5.4426727c-4.82441 -3.447029 -7.236615 -7.5743866 -7.236615 -12.38208l0 -3.6284485l-3.9768786 0l0 61.00329l3.9768786 0l0 -3.6284485c0 -3.1446533 1.0865684 -6.107895 3.2597365 -8.889694c4.7809577 -5.775284 11.974121 -8.753639 21.579458 -8.935059l239.98181 0l0 52.97534c-0.30422974 4.2634277 -2.8033752 7.9674683 -7.497406 11.112122c-4.650543 3.1748962 -10.170364 4.7623444 -16.559448 4.7623444l-6.780258 0l-0.45635986 2.766693l50.525925 0z" fill-rule="evenodd"/><path stroke="#212121" stroke-width="1.0" stroke-linejoin="round" stroke-linecap="butt" d="m287.99994 191.99028c-1.6081238 -2.7818146 -3.216278 -7.6651 -4.824402 -14.649857c-1.6081543 -6.954529 -2.4122314 -13.304321 -2.4122314 -19.049362l0 -114.25076c0 -8.919933 -2.4773865 -16.90252 -7.43219 -23.947758c-4.9113464 -7.0754747 -10.909241 -12.185543 -17.993744 -15.330195c-7.084503 -3.1748922 -15.516342 -4.762338 -25.295563 -4.762338c-9.735733 0 -19.536667 2.887644 -29.402817 8.662921l2.0210419 2.2224245c8.257996 -2.9934697 16.190033 -4.490205 23.796066 -4.490205c7.649521 0 14.929596 1.7688684 21.84024 5.3066053c13.647446 6.682395 20.471146 17.46191 20.471146 32.338547l0 58.2366l-240.37299 0c-6.649864 -0.181427 -12.386999 -1.9956512 -17.21141 -5.4426727c-4.82441 -3.447029 -7.236615 -7.5743866 -7.236615 -12.38208l0 -3.6284485l-3.9768786 0l0 61.00329l3.9768786 0l0 -3.6284485c0 -3.1446533 1.0865684 -6.107895 3.2597365 -8.889694c4.7809577 -5.775284 11.974121 -8.753639 21.579458 -8.935059l239.98181 0l0 52.97534c-0.30422974 4.2634277 -2.8033752 7.9674683 -7.497406 11.112122c-4.650543 3.1748962 -10.170364 4.7623444 -16.559448 4.7623444l-6.780258 0l-0.45635986 2.766693l50.525925 0z" fill-rule="evenodd"/></g></svg>